<?xml version="1.0" encoding="UTF-8"?>
<svg id="Camada_1" data-name="Camada 1" xmlns="http://www.w3.org/2000/svg" viewBox="0 0 669.42 140.12">
  <defs>
    <style>
      .cls-1 {
        fill: #075fe4;
      }
    </style>
  </defs>
  <g>
    <path class="cls-1" d="M73.48,127.64H0L37.6,5.27h37.87l-26.18,85.57h35.61l-11.43,36.8Z"/>
    <path class="cls-1" d="M113.28,5.27h73.48l-37.6,122.37h-37.87l26.18-85.57h-35.6l11.42-36.8Z"/>
  </g>
  <g>
    <g>
      <path class="cls-1" d="M233.68,55.41V3.66h13.69v40.29h19.59v11.46h-33.28Z"/>
      <path class="cls-1" d="M292.04,56.37c-3.87,0-7.36-.82-10.47-2.47-3.1-1.65-5.56-4.02-7.36-7.13-1.8-3.11-2.71-6.86-2.71-11.27s.92-8,2.75-11.11c1.84-3.11,4.21-5.51,7.13-7.21,2.92-1.7,6-2.55,9.24-2.55,3.93,0,7.18.87,9.76,2.59,2.57,1.73,4.48,4.05,5.73,6.97,1.24,2.92,1.87,6.16,1.87,9.71,0,1.17-.07,2.3-.2,3.38-.13,1.09-.25,1.87-.36,2.35h-22.69c.64,2.39,1.78,4.05,3.42,4.98,1.65.93,3.59,1.39,5.81,1.39,2.55,0,5.25-.79,8.12-2.39l4.46,8.12c-2.12,1.49-4.51,2.63-7.16,3.42-2.65.8-5.1,1.19-7.33,1.19ZM284.56,30.73h11.78c0-1.54-.38-2.88-1.15-4.02-.77-1.14-2.19-1.71-4.26-1.71-1.49,0-2.81.45-3.98,1.35-1.17.9-1.96,2.36-2.38,4.38Z"/>
      <path class="cls-1" d="M333.12,56.37c-3.4,0-6.6-.82-9.59-2.47-3-1.65-5.44-4.02-7.32-7.13-1.88-3.11-2.83-6.86-2.83-11.27s.95-8.16,2.83-11.27c1.88-3.1,4.32-5.48,7.32-7.13,3-1.64,6.2-2.47,9.59-2.47s6.59.82,9.59,2.47c3,1.65,5.44,4.02,7.33,7.13,1.88,3.11,2.83,6.86,2.83,11.27s-.95,8.16-2.83,11.27c-1.88,3.1-4.33,5.48-7.33,7.13-3,1.65-6.19,2.47-9.59,2.47ZM333.12,45.38c2.07,0,3.54-.89,4.42-2.67.88-1.78,1.31-4.18,1.31-7.21s-.44-5.42-1.31-7.21c-.88-1.78-2.35-2.67-4.42-2.67s-3.54.89-4.42,2.67c-.88,1.78-1.31,4.18-1.31,7.21s.44,5.43,1.31,7.21c.88,1.78,2.35,2.67,4.42,2.67Z"/>
      <path class="cls-1" d="M377.07,55.41V3.66h14.01l11.46,23.09,4.94,11.62h.32c-.32-2.81-.69-6.01-1.12-9.59s-.64-6.97-.64-10.15V3.66h13.06v51.75h-14.02l-11.46-23.17-4.94-11.54h-.32c.32,2.92.69,6.14,1.11,9.67.42,3.53.64,6.89.64,10.07v14.97h-13.06Z"/>
      <path class="cls-1" d="M447.14,56.37c-3.4,0-6.6-.82-9.6-2.47-3-1.65-5.44-4.02-7.32-7.13-1.88-3.11-2.83-6.86-2.83-11.27s.95-8.16,2.83-11.27c1.88-3.1,4.32-5.48,7.32-7.13,3-1.64,6.2-2.47,9.6-2.47s6.6.82,9.59,2.47c3,1.65,5.44,4.02,7.33,7.13,1.88,3.11,2.83,6.86,2.83,11.27s-.94,8.16-2.83,11.27c-1.88,3.1-4.33,5.48-7.33,7.13-3,1.65-6.19,2.47-9.59,2.47ZM447.14,45.38c2.07,0,3.54-.89,4.42-2.67.88-1.78,1.31-4.18,1.31-7.21s-.44-5.42-1.31-7.21c-.88-1.78-2.35-2.67-4.42-2.67s-3.54.89-4.42,2.67c-.87,1.78-1.31,4.18-1.31,7.21s.44,5.43,1.31,7.21c.88,1.78,2.35,2.67,4.42,2.67Z"/>
      <path class="cls-1" d="M496.18,56.37c-3.66,0-7-1.75-10.03-5.25h-.32l-1.11,4.3h-10.67V0h13.7v12.9l-.32,5.73c2.92-2.65,6.18-3.98,9.79-3.98,3.13,0,5.86.84,8.2,2.51,2.33,1.67,4.14,4.01,5.41,7.01,1.27,3,1.91,6.54,1.91,10.63,0,4.57-.8,8.47-2.39,11.7-1.59,3.24-3.65,5.69-6.17,7.36-2.52,1.67-5.19,2.51-8,2.51ZM492.83,45.22c1.59,0,2.97-.74,4.14-2.23,1.16-1.49,1.75-4.14,1.75-7.96,0-3.29-.47-5.65-1.4-7.09-.93-1.43-2.32-2.15-4.18-2.15-1.01,0-1.94.21-2.79.64-.85.43-1.73,1.17-2.63,2.23v14.65c.79.69,1.63,1.18,2.51,1.47.88.29,1.74.44,2.59.44Z"/>
      <path class="cls-1" d="M520.22,55.41V15.61h11.15l.96,6.85h.32c1.49-2.71,3.26-4.68,5.29-5.93,2.05-1.25,4.05-1.87,6.01-1.87,1.22,0,2.21.07,2.99.2.77.13,1.42.33,1.95.6l-2.23,11.78c-.69-.16-1.38-.31-2.07-.44-.69-.13-1.49-.2-2.39-.2-1.43,0-2.93.49-4.5,1.47-1.57.98-2.83,2.72-3.78,5.22v22.13h-13.7Z"/>
      <path class="cls-1" d="M571.18,56.37c-3.87,0-7.36-.82-10.47-2.47-3.11-1.65-5.56-4.02-7.36-7.13-1.8-3.11-2.7-6.86-2.7-11.27s.91-8,2.74-11.11c1.84-3.11,4.21-5.51,7.13-7.21,2.92-1.7,6-2.55,9.24-2.55,3.93,0,7.18.87,9.75,2.59,2.57,1.73,4.48,4.05,5.73,6.97,1.24,2.92,1.87,6.16,1.87,9.71,0,1.17-.07,2.3-.2,3.38-.13,1.09-.25,1.87-.36,2.35h-22.69c.64,2.39,1.78,4.05,3.42,4.98,1.65.93,3.59,1.39,5.81,1.39,2.55,0,5.25-.79,8.12-2.39l4.46,8.12c-2.12,1.49-4.51,2.63-7.16,3.42-2.65.8-5.1,1.19-7.33,1.19ZM563.7,30.73h11.78c0-1.54-.39-2.88-1.16-4.02-.77-1.14-2.19-1.71-4.26-1.71-1.49,0-2.82.45-3.98,1.35-1.17.9-1.96,2.36-2.38,4.38Z"/>
      <path class="cls-1" d="M608.28,71.82c-3.02,0-5.81-.33-8.36-1-2.55-.66-4.58-1.71-6.09-3.14-1.51-1.43-2.27-3.34-2.27-5.73,0-3.13,1.86-5.68,5.58-7.64v-.32c-1.01-.74-1.87-1.66-2.59-2.75-.72-1.09-1.07-2.46-1.07-4.1,0-1.38.41-2.73,1.23-4.06.82-1.33,1.9-2.47,3.22-3.42v-.32c-1.43-.96-2.7-2.32-3.78-4.1-1.09-1.78-1.63-3.81-1.63-6.09,0-3.29.81-6.01,2.43-8.16,1.62-2.15,3.73-3.74,6.33-4.78,2.6-1.03,5.36-1.55,8.28-1.55,2.33,0,4.46.32,6.37.96h14.81v9.87h-5.73c.16.48.3,1.09.44,1.83.13.74.2,1.51.2,2.31,0,3.13-.72,5.67-2.15,7.6-1.43,1.94-3.37,3.36-5.81,4.26-2.44.9-5.15,1.35-8.12,1.35-1.33,0-2.81-.19-4.46-.56-.64.59-.96,1.35-.96,2.31,0,.85.44,1.46,1.32,1.83.88.37,2.29.56,4.26.56h5.97c4.99,0,8.85.81,11.58,2.43s4.1,4.26,4.1,7.92c0,2.87-.94,5.39-2.82,7.57-1.89,2.18-4.55,3.87-8,5.09-3.45,1.22-7.54,1.83-12.26,1.83ZM610.51,63.38c2.23,0,4.09-.33,5.57-1,1.49-.66,2.23-1.55,2.23-2.67s-.46-1.72-1.39-1.99c-.93-.27-2.24-.4-3.94-.4h-3.11c-1.59,0-2.8-.04-3.62-.12-.82-.08-1.53-.2-2.11-.36-.96.95-1.43,1.91-1.43,2.87,0,1.27.73,2.2,2.19,2.79,1.46.58,3.33.88,5.61.88ZM609.55,34.71c1.27,0,2.31-.45,3.11-1.36.79-.9,1.19-2.31,1.19-4.22s-.39-3.23-1.19-4.1c-.8-.88-1.84-1.31-3.11-1.31s-2.31.44-3.1,1.31c-.8.88-1.19,2.24-1.19,4.1s.39,3.32,1.19,4.22c.8.9,1.83,1.36,3.1,1.36Z"/>
      <path class="cls-1" d="M646.01,56.37c-2.49,0-4.63-.57-6.41-1.71-1.78-1.14-3.15-2.64-4.1-4.5-.95-1.86-1.43-3.87-1.43-6.05,0-4.14,1.69-7.39,5.09-9.75,3.4-2.36,8.92-3.94,16.56-4.74-.32-2.76-2.18-4.14-5.57-4.14-1.44,0-2.95.28-4.54.84-1.59.56-3.42,1.39-5.49,2.51l-4.78-8.92c2.81-1.7,5.67-3,8.56-3.9,2.9-.9,5.88-1.35,8.96-1.35,5.2,0,9.26,1.47,12.18,4.42,2.92,2.95,4.38,7.68,4.38,14.21v22.13h-11.15l-.95-3.82h-.32c-1.59,1.43-3.28,2.59-5.06,3.46-1.78.88-3.75,1.32-5.93,1.32ZM650.8,45.86c1.11,0,2.04-.25,2.78-.76.75-.5,1.46-1.15,2.15-1.95v-5.41c-3.24.48-5.48,1.19-6.73,2.15-1.24.96-1.87,1.99-1.87,3.11,0,1.91,1.22,2.87,3.66,2.87Z"/>
    </g>
    <g>
      <path class="cls-1" d="M240.93,128.02l-7.25-36.45h6.63l3.18,18.39c.3,1.93.6,3.88.92,5.82.32,1.95.6,3.89.86,5.83h.22c.41-1.93.81-3.87,1.2-5.83.39-1.95.79-3.89,1.2-5.82l4.46-18.39h5.63l4.46,18.39c.4,1.9.82,3.82,1.22,5.77.41,1.95.82,3.91,1.23,5.88h.22c.3-1.97.59-3.92.9-5.85.3-1.93.57-3.86.83-5.8l3.18-18.39h6.18l-6.97,36.45h-8.02l-4.51-19.17c-.3-1.41-.59-2.82-.86-4.23-.28-1.41-.53-2.81-.75-4.18h-.22c-.26,1.37-.53,2.77-.81,4.18-.28,1.41-.57,2.82-.87,4.23l-4.4,19.17h-7.86Z"/>
      <path class="cls-1" d="M293.04,128.69c-2.53,0-4.81-.57-6.86-1.7-2.04-1.13-3.66-2.77-4.85-4.9-1.19-2.14-1.78-4.71-1.78-7.72s.6-5.54,1.81-7.69c1.21-2.16,2.78-3.81,4.71-4.96,1.93-1.15,3.96-1.73,6.07-1.73,2.49,0,4.57.55,6.24,1.64,1.67,1.1,2.93,2.62,3.79,4.57.85,1.95,1.28,4.21,1.28,6.77,0,1.34-.09,2.38-.28,3.12h-17.39c.3,2.42,1.17,4.29,2.62,5.63,1.45,1.34,3.27,2.01,5.46,2.01,1.19,0,2.3-.18,3.32-.53,1.02-.35,2.04-.84,3.04-1.48l2.18,4.01c-1.3.85-2.75,1.56-4.35,2.12-1.6.56-3.27.83-5.01.83ZM285.74,111.75h12.15c0-2.12-.46-3.78-1.39-4.99-.93-1.21-2.32-1.81-4.18-1.81-1.6,0-3.02.59-4.26,1.76-1.24,1.17-2.01,2.85-2.31,5.04Z"/>
      <path class="cls-1" d="M322.85,128.69c-2.6,0-5.09-1.19-7.47-3.57h-.17l-.56,2.9h-5.07v-39.35h6.41v10.14l-.17,4.57c1.15-1,2.41-1.82,3.79-2.45,1.37-.63,2.75-.95,4.12-.95,3.42,0,6.07,1.26,7.97,3.79,1.89,2.53,2.84,5.89,2.84,10.09,0,3.12-.56,5.79-1.67,8-1.11,2.21-2.56,3.9-4.32,5.07-1.76,1.17-3.67,1.76-5.71,1.76ZM321.51,123.4c1.82,0,3.35-.8,4.57-2.4,1.23-1.6,1.84-3.94,1.84-7.02,0-2.75-.46-4.88-1.39-6.41-.93-1.52-2.44-2.28-4.52-2.28-1.93,0-3.94,1.02-6.02,3.06v12.76c.97.82,1.92,1.4,2.87,1.75.95.36,1.83.53,2.64.53Z"/>
      <path class="cls-1" d="M352.67,128.02v-36.45h9.75c5.58,0,9.92,1.5,13.04,4.51,3.12,3.01,4.68,7.52,4.68,13.54s-1.54,10.64-4.63,13.74c-3.08,3.1-7.34,4.65-12.76,4.65h-10.09ZM359.13,122.79h2.84c3.68,0,6.52-1.07,8.53-3.2,2-2.14,3.01-5.45,3.01-9.95s-1.01-7.71-3.01-9.75c-2.01-2.04-4.85-3.07-8.53-3.07h-2.84v25.97Z"/>
      <path class="cls-1" d="M398.65,128.69c-2.53,0-4.81-.57-6.86-1.7-2.05-1.13-3.66-2.77-4.85-4.9-1.19-2.14-1.78-4.71-1.78-7.72s.6-5.54,1.81-7.69c1.21-2.16,2.78-3.81,4.71-4.96,1.93-1.15,3.96-1.73,6.07-1.73,2.49,0,4.57.55,6.24,1.64,1.67,1.1,2.93,2.62,3.79,4.57.85,1.95,1.28,4.21,1.28,6.77,0,1.34-.09,2.38-.28,3.12h-17.39c.3,2.42,1.17,4.29,2.62,5.63,1.45,1.34,3.27,2.01,5.46,2.01,1.19,0,2.3-.18,3.32-.53,1.02-.35,2.04-.84,3.04-1.48l2.17,4.01c-1.3.85-2.75,1.56-4.35,2.12-1.6.56-3.27.83-5.01.83ZM391.35,111.75h12.15c0-2.12-.47-3.78-1.4-4.99-.93-1.21-2.32-1.81-4.18-1.81-1.6,0-3.02.59-4.27,1.76-1.24,1.17-2.02,2.85-2.31,5.04Z"/>
      <path class="cls-1" d="M422.84,128.69c-1.86,0-3.72-.36-5.58-1.09-1.86-.72-3.45-1.63-4.8-2.7l3.01-4.12c1.23.93,2.45,1.67,3.68,2.23,1.22.56,2.52.84,3.9.84,1.49,0,2.58-.32,3.29-.95.7-.63,1.06-1.41,1.06-2.34,0-.78-.29-1.42-.87-1.92-.58-.5-1.31-.95-2.2-1.34-.89-.39-1.82-.77-2.79-1.14-1.19-.45-2.37-.99-3.54-1.64-1.17-.65-2.13-1.49-2.87-2.51-.75-1.02-1.11-2.29-1.11-3.82,0-2.42.89-4.38,2.68-5.91,1.78-1.52,4.2-2.28,7.24-2.28,1.93,0,3.66.33,5.19,1,1.52.67,2.84,1.43,3.95,2.28l-2.95,3.9c-.96-.7-1.94-1.27-2.92-1.7-.98-.43-2.01-.64-3.09-.64-1.37,0-2.39.29-3.07.86-.67.58-1,1.29-1,2.15,0,1.08.56,1.89,1.67,2.45,1.11.56,2.42,1.1,3.9,1.62,1.27.45,2.49,1,3.68,1.65,1.19.65,2.18,1.49,2.98,2.53.8,1.04,1.2,2.42,1.2,4.13,0,2.34-.91,4.34-2.73,5.99-1.82,1.65-4.46,2.48-7.91,2.48Z"/>
      <path class="cls-1" d="M442.45,95.87c-1.15,0-2.08-.34-2.78-1-.71-.67-1.06-1.56-1.06-2.68s.35-1.95,1.06-2.62c.7-.67,1.63-1,2.78-1s2.08.34,2.78,1c.71.67,1.06,1.54,1.06,2.62s-.35,2.01-1.06,2.68c-.7.67-1.63,1-2.78,1ZM439.22,128.02v-27.36h6.41v27.36h-6.41Z"/>
      <path class="cls-1" d="M463.35,140.12c-2.15,0-4.1-.26-5.82-.78-1.73-.52-3.09-1.31-4.07-2.37-.98-1.06-1.48-2.39-1.48-3.98,0-2.27,1.3-4.22,3.9-5.85v-.22c-.71-.45-1.29-1.04-1.75-1.78-.46-.74-.7-1.67-.7-2.79s.3-2.05.91-2.93c.61-.87,1.31-1.59,2.09-2.15v-.22c-.93-.7-1.75-1.69-2.48-2.95-.72-1.26-1.09-2.69-1.09-4.29,0-2.12.51-3.9,1.5-5.35,1.01-1.45,2.33-2.55,3.99-3.32,1.65-.76,3.43-1.14,5.32-1.14.74,0,1.46.06,2.14.2.69.13,1.31.29,1.87.47h9.81v4.74h-5.02c.45.52.82,1.18,1.11,1.98.3.8.44,1.68.44,2.65,0,2.01-.46,3.71-1.39,5.1-.93,1.39-2.17,2.45-3.73,3.15-1.56.71-3.31,1.06-5.24,1.06-.59,0-1.21-.06-1.84-.17-.63-.11-1.26-.3-1.89-.56-.41.37-.73.74-.98,1.11-.24.37-.36.87-.36,1.5,0,.78.32,1.39.97,1.84.65.44,1.81.67,3.49.67h4.84c3.31,0,5.81.53,7.5,1.59,1.69,1.06,2.53,2.78,2.53,5.16,0,1.78-.59,3.41-1.78,4.88-1.19,1.47-2.88,2.63-5.07,3.48-2.19.85-4.77,1.28-7.74,1.28ZM464.35,135.94c2.19,0,3.98-.45,5.35-1.34,1.37-.89,2.06-1.91,2.06-3.07,0-1.08-.42-1.8-1.25-2.17-.84-.37-2.03-.56-3.59-.56h-3.73c-1.49,0-2.73-.13-3.74-.39-1.41,1.08-2.12,2.28-2.12,3.62,0,1.23.63,2.18,1.89,2.87,1.26.69,2.97,1.03,5.13,1.03ZM463.69,115.32c1.3,0,2.42-.48,3.35-1.45.93-.96,1.39-2.32,1.39-4.07s-.46-3.04-1.36-3.99c-.91-.95-2.04-1.42-3.37-1.42s-2.47.47-3.4,1.39c-.93.93-1.4,2.27-1.4,4.01s.46,3.1,1.4,4.07c.93.97,2.06,1.45,3.4,1.45Z"/>
      <path class="cls-1" d="M482.8,128.02v-27.36h5.29l.45,3.68h.22c1.22-1.19,2.56-2.21,4.01-3.07,1.45-.85,3.1-1.28,4.96-1.28,2.94,0,5.07.95,6.41,2.84,1.34,1.89,2.01,4.57,2.01,8.03v17.16h-6.41v-16.33c0-2.27-.33-3.86-1-4.79-.67-.93-1.77-1.39-3.29-1.39-1.19,0-2.24.29-3.15.86-.91.58-1.94,1.42-3.09,2.53v19.12h-6.41Z"/>
      <path class="cls-1" d="M525.71,128.69c-2.52,0-4.81-.57-6.86-1.7-2.04-1.13-3.66-2.77-4.85-4.9-1.19-2.14-1.78-4.71-1.78-7.72s.6-5.54,1.81-7.69c1.21-2.16,2.78-3.81,4.71-4.96,1.94-1.15,3.96-1.73,6.07-1.73,2.49,0,4.57.55,6.24,1.64,1.67,1.1,2.94,2.62,3.79,4.57.85,1.95,1.28,4.21,1.28,6.77,0,1.34-.09,2.38-.28,3.12h-17.39c.3,2.42,1.17,4.29,2.62,5.63,1.45,1.34,3.27,2.01,5.46,2.01,1.19,0,2.3-.18,3.32-.53,1.02-.35,2.03-.84,3.04-1.48l2.17,4.01c-1.3.85-2.75,1.56-4.35,2.12-1.6.56-3.27.83-5.02.83ZM518.42,111.75h12.15c0-2.12-.46-3.78-1.39-4.99-.93-1.21-2.32-1.81-4.18-1.81-1.6,0-3.02.59-4.26,1.76-1.24,1.17-2.02,2.85-2.31,5.04Z"/>
      <path class="cls-1" d="M542.27,128.02v-27.36h5.29l.45,4.85h.22c.97-1.78,2.14-3.15,3.52-4.1,1.37-.95,2.78-1.42,4.23-1.42,1.3,0,2.34.19,3.12.56l-1.11,5.57c-.48-.15-.93-.26-1.34-.34-.41-.07-.91-.11-1.5-.11-1.08,0-2.21.42-3.4,1.25-1.19.83-2.21,2.29-3.07,4.37v16.72h-6.41Z"/>
    </g>
  </g>
</svg>